<svg width="263" height="51" viewBox="0 0 263 51" fill="none" xmlns="http://www.w3.org/2000/svg">
<path d="M11.5 21.5C15.1 21.9 17.1 23.75 17.1 26.75C17.1 29.15 15.1 31.2 12.55 31.2C10.35 31.2 8.6 30.65 6.9 28.5L0.5 33.2C4.05 37.1 8.3 38.65 12.55 38.65C19.1 38.65 25.15 33.45 25.15 26.2C25.15 19 19.9 14.7 13.55 14.3C9.6 14.05 8.35 12.5 8.35 10.8C8.35 8.75 9.75 7.5 11.8 7.5C13.1 7.5 14.75 8.3 15.75 9.35L21.85 4.9C19 1.5 15.5 0.0999992 11.8 0.0999992C6.65 0.0999992 0.85 4.55 0.85 10.85C0.85 16.7 5.05 20.75 11.5 21.5ZM36.3832 50.05V36.2C37.7332 37.8 40.2832 38.55 42.3832 38.55C49.2832 38.55 54.9332 32.6 54.9332 25.3C54.9332 18.1 49.4832 12.2 42.5332 12.2C40.2332 12.2 37.4832 13.3 36.3832 14.5V12.75H29.2832V50.05H36.3832ZM41.8332 19.3C45.0832 19.3 47.7332 21.8 47.7332 25.35C47.7332 28.95 45.0832 31.5 41.8332 31.5C38.5332 31.5 36.0832 28.95 36.0832 25.35C36.0832 21.8 38.5332 19.3 41.8332 19.3ZM70.923 12.2C63.673 12.2 57.823 18.1 57.823 25.4C57.823 32.6 63.673 38.55 70.923 38.55C78.173 38.55 84.223 32.6 84.223 25.4C84.223 18.1 78.173 12.2 70.923 12.2ZM70.923 31.5C67.673 31.5 65.023 29 65.023 25.4C65.023 21.85 67.673 19.3 70.923 19.3C74.373 19.3 76.973 21.85 76.973 25.4C76.973 29 74.373 31.5 70.923 31.5ZM102.97 19.3V12.75H96.9699V4.3L89.8699 9.45V12.75H86.0699V19.3H89.8699V27.55C89.8699 34.1 95.2699 38.55 102.82 38.55V31.5C99.5699 31.5 96.9699 30.2 96.9699 27.35V19.3H102.97Z" fill="#423E37"/>
<path d="M135.236 25.3C132.536 29.3 128.736 31.25 124.886 31.25C118.636 31.25 113.686 25.95 113.686 19.4C113.686 12.8 118.636 7.5 124.886 7.5C128.586 7.5 132.336 9.45 134.886 13.45L140.936 9.15C137.636 3.7 131.636 0.0999992 124.836 0.0999992C114.236 0.0999992 105.736 8.75 105.736 19.4C105.736 30.05 114.236 38.65 124.886 38.65C131.786 38.65 137.786 35.05 141.236 29.6L135.236 25.3ZM162.311 12.75V14.5C161.211 13.3 158.411 12.2 156.161 12.2C149.411 12.2 143.761 18.1 143.761 25.4C143.761 32.6 149.261 38.55 156.161 38.55C158.461 38.55 161.211 37.65 162.311 36.2V38H169.411V12.75H162.311ZM156.861 31.5C153.611 31.5 150.961 29 150.961 25.4C150.961 21.85 153.611 19.3 156.861 19.3C160.161 19.3 162.611 21.85 162.611 25.4C162.611 29 160.161 31.5 156.861 31.5ZM188.85 12.3C188.2 12.2 187.7 12.2 187.1 12.2C185.15 12.2 183.05 12.85 181.5 14.5V12.75H174.4V38H181.5V25.4C181.5 21.35 183.85 19.3 186.6 19.3C187.4 19.3 188.15 19.4 188.85 19.65V12.3ZM210.079 28.95C208.929 30.75 206.779 31.5 204.629 31.5C203.879 31.5 203.179 31.45 202.529 31.2L216.629 21.1C215.079 16.4 210.279 12.2 204.029 12.2C196.779 12.2 190.929 18.1 190.929 25.4C190.929 32.6 197.029 38.55 204.629 38.55C209.129 38.55 213.579 36.5 215.729 33.3L210.079 28.95ZM198.129 25.4C198.129 21.85 200.779 19.3 204.029 19.3C205.379 19.3 206.529 19.75 207.529 20.5L198.329 27.05C198.179 26.55 198.129 26 198.129 25.4ZM238.301 28.95C237.151 30.75 235.001 31.5 232.851 31.5C232.101 31.5 231.401 31.45 230.751 31.2L244.851 21.1C243.301 16.4 238.501 12.2 232.251 12.2C225.001 12.2 219.151 18.1 219.151 25.4C219.151 32.6 225.251 38.55 232.851 38.55C237.351 38.55 241.801 36.5 243.951 33.3L238.301 28.95ZM226.351 25.4C226.351 21.85 229.001 19.3 232.251 19.3C233.601 19.3 234.751 19.75 235.751 20.5L226.551 27.05C226.401 26.55 226.351 26 226.351 25.4ZM262.874 12.3C262.224 12.2 261.724 12.2 261.124 12.2C259.174 12.2 257.074 12.85 255.524 14.5V12.75H248.424V38H255.524V25.4C255.524 21.35 257.874 19.3 260.624 19.3C261.424 19.3 262.174 19.4 262.874 19.65V12.3Z" fill="#E3B23C"/>
</svg>
